<svg width="300" height="32" viewBox="0 0 300 32" fill="none" xmlns="http://www.w3.org/2000/svg">
<path d="M7.87697 26.4989H0.1875V8.12793H7.56628C11.1527 8.12793 13.243 10.1406 13.243 13.288C13.243 15.3277 11.9024 16.6414 10.9737 17.0804C12.0847 17.5971 13.5031 18.7588 13.5031 21.2105C13.5031 24.6415 11.1527 26.4989 7.87697 26.4989ZM7.28261 11.326H3.77389V15.5607H7.28261C8.80565 15.5607 9.65666 14.7097 9.65666 13.4434C9.65666 12.1804 8.80565 11.326 7.28261 11.326ZM7.51563 18.7858H3.77389V23.3009H7.51563C9.13997 23.3009 9.91669 22.2675 9.91669 21.0315C9.91669 19.7921 9.13997 18.7858 7.51563 18.7858Z" fill="white"/>
<path d="M24.4402 18.9648V26.4989H20.8808V18.9648L15.3594 8.12793H19.2565L22.6875 15.5337L26.0679 8.12793H29.9616L24.4402 18.9648Z" fill="white"/>
<path d="M40.1309 26.4989H32.4414V8.12793H39.8202C43.4066 8.12793 45.497 10.1406 45.497 13.288C45.497 15.3277 44.1563 16.6414 43.2276 17.0804C44.3386 17.5971 45.757 18.7588 45.757 21.2105C45.757 24.6415 43.4066 26.4989 40.1309 26.4989ZM39.5365 11.326H36.0278V15.5607H39.5365C41.0596 15.5607 41.9106 14.7097 41.9106 13.4434C41.9106 12.1804 41.0596 11.326 39.5365 11.326ZM39.7695 18.7858H36.0278V23.3009H39.7695C41.3939 23.3009 42.1706 22.2675 42.1706 21.0315C42.1672 19.7921 41.3939 18.7858 39.7695 18.7858Z" fill="white"/>
<path d="M53.2622 2.5H49.6758V20.871H53.2622V2.5Z" fill="#F7A600"/>
<path d="M64.8226 11.326V26.4989H61.2362V11.326H56.4375V8.12793H69.6214V11.326H64.8226Z" fill="white"/>
<rect x="94.8672" y="11.0508" width="16" height="2" transform="rotate(135 94.8672 11.0508)" fill="#71757A"/>
<rect x="93.4531" y="22.3633" width="16" height="2" transform="rotate(-135 93.4531 22.3633)" fill="#71757A"/>
<g clip-path="url(#clip0_1917_47581)">
<path d="M155.41 25.0244H159.112V10.5199H163.955V7.02051H150.617V10.5199H155.41V25.0244Z" fill="white"/>
<path d="M163.965 25.0243H167.439V18.9639C167.439 16.8592 168.529 15.5913 170.177 15.5913C170.761 15.5913 171.217 15.6927 171.75 15.8702V12.3455C171.319 12.2187 170.964 12.1934 170.583 12.1934C169.163 12.1934 167.87 13.1316 167.439 14.3741V12.3455H163.965V25.0243Z" fill="white"/>
<path d="M178.416 25.304C180.166 25.304 181.484 24.4165 182.068 23.6051V25.0251H185.542V12.3463H182.068V13.7664C181.484 12.9549 180.166 12.0674 178.416 12.0674C175.044 12.0674 172.457 15.1103 172.457 18.6857C172.457 22.2611 175.044 25.304 178.416 25.304ZM179.151 22.1344C177.224 22.1344 175.956 20.689 175.956 18.6857C175.956 16.6825 177.224 15.2371 179.151 15.2371C181.079 15.2371 182.347 16.6825 182.347 18.6857C182.347 20.689 181.079 22.1344 179.151 22.1344Z" fill="white"/>
<path d="M193.811 25.3039C195.56 25.3039 196.879 24.4164 197.462 23.605V25.025H200.936V6.00684H197.462V13.7663C196.879 12.9548 195.56 12.0673 193.811 12.0673C190.438 12.0673 187.852 15.1102 187.852 18.6856C187.852 22.261 190.438 25.3039 193.811 25.3039ZM194.546 22.1343C192.619 22.1343 191.351 20.6889 191.351 18.6856C191.351 16.6824 192.619 15.237 194.546 15.237C196.473 15.237 197.741 16.6824 197.741 18.6856C197.741 20.6889 196.473 22.1343 194.546 22.1343Z" fill="white"/>
<path d="M205.784 10.2667C207.027 10.2667 208.016 9.27776 208.016 8.0606C208.016 6.84344 207.027 5.85449 205.784 5.85449C204.592 5.85449 203.578 6.84344 203.578 8.0606C203.578 9.27776 204.592 10.2667 205.784 10.2667ZM204.06 25.0248H207.534V12.346H204.06V25.0248Z" fill="white"/>
<path d="M210.617 25.0251H214.091V18.8379C214.091 16.4035 215.283 15.2371 216.906 15.2371C218.351 15.2371 219.137 16.3528 219.137 18.1786V25.0251H222.611V17.5953C222.611 14.2989 220.785 12.0674 217.717 12.0674C216.069 12.0674 214.776 12.7774 214.091 13.7917V12.3463H210.617V25.0251Z" fill="white"/>
<path d="M231.454 21.7286C229.704 21.7286 228.233 20.41 228.233 18.4829C228.233 16.5303 229.704 15.2371 231.454 15.2371C233.203 15.2371 234.674 16.5303 234.674 18.4829C234.674 20.41 233.203 21.7286 231.454 21.7286ZM231.048 30.5784C234.928 30.5784 237.869 28.6005 237.869 24.0362V12.3463H234.395V13.7664C233.711 12.7774 232.341 12.0674 230.718 12.0674C227.396 12.0674 224.734 14.9074 224.734 18.4829C224.734 22.0329 227.396 24.873 230.718 24.873C232.341 24.873 233.711 24.1376 234.395 23.1994V24.0615C234.395 26.0901 233.051 27.5355 230.997 27.5355C229.577 27.5355 228.157 27.0537 227.041 25.9633L225.14 28.5498C226.585 29.9445 228.842 30.5784 231.048 30.5784Z" fill="white"/>
<path d="M245.214 25.0244H248.485L255.941 7.02051H251.883L246.863 19.5218L241.766 7.02051H237.785L245.214 25.0244Z" fill="white"/>
<path d="M259.128 10.2667C260.371 10.2667 261.36 9.27776 261.36 8.0606C261.36 6.84344 260.371 5.85449 259.128 5.85449C257.936 5.85449 256.922 6.84344 256.922 8.0606C256.922 9.27776 257.936 10.2667 259.128 10.2667ZM257.404 25.0248H260.878V12.346H257.404V25.0248Z" fill="white"/>
<path d="M269.867 25.304C272.53 25.304 274.559 24.1883 275.75 22.464L273.164 20.5368C272.581 21.4243 271.49 22.1344 269.893 22.1344C268.219 22.1344 266.723 21.1961 266.52 19.4972H276.004C276.08 18.9647 276.055 18.6096 276.055 18.3054C276.055 14.1721 273.139 12.0674 269.817 12.0674C265.962 12.0674 263.148 14.9328 263.148 18.6857C263.148 22.6922 266.089 25.304 269.867 25.304ZM266.647 17.1389C266.977 15.5921 268.422 14.9328 269.715 14.9328C271.009 14.9328 272.276 15.6175 272.581 17.1389H266.647Z" fill="white"/>
<path d="M289.072 25.0245H292.52L296.704 12.3457H292.977L290.593 20.4602L288.007 12.3457H285.344L282.783 20.4602L280.374 12.3457H276.672L280.881 25.0245H284.33L286.688 17.823L289.072 25.0245Z" fill="white"/>
<path d="M121.816 25H114.816V14H107.816V7H121.816V25Z" fill="white"/>
<path d="M135.816 25H127.816L135.316 7H143.316L135.816 25Z" fill="white"/>
<path d="M127.816 15C130.026 15 131.816 13.2091 131.816 11C131.816 8.79086 130.026 7 127.816 7C125.607 7 123.816 8.79086 123.816 11C123.816 13.2091 125.607 15 127.816 15Z" fill="white"/>
</g>
<defs>
<clipPath id="clip0_1917_47581">
<rect width="192" height="32" fill="white" transform="translate(107.816)"/>
</clipPath>
</defs>
</svg>
